<?xml version="1.0" encoding="UTF-8" standalone="no"?>
<!-- Created with Inkscape (http://www.inkscape.org/) -->

<svg
   width="256"
   height="256"
   viewBox="0 0 67.733332 67.733332"
   version="1.1"
   id="svg1"
   inkscape:version="1.4 (86a8ad7, 2024-10-11)"
   sodipodi:docname="help.svg"
   inkscape:export-filename="..\png\help.png"
   inkscape:export-xdpi="96"
   inkscape:export-ydpi="96"
   xmlns:inkscape="http://www.inkscape.org/namespaces/inkscape"
   xmlns:sodipodi="http://sodipodi.sourceforge.net/DTD/sodipodi-0.dtd"
   xmlns="http://www.w3.org/2000/svg"
   xmlns:svg="http://www.w3.org/2000/svg"
   xmlns:rdf="http://www.w3.org/1999/02/22-rdf-syntax-ns#"
   xmlns:cc="http://creativecommons.org/ns#">
  <sodipodi:namedview
     id="namedview1"
     pagecolor="#505050"
     bordercolor="#eeeeee"
     borderopacity="1"
     inkscape:showpageshadow="0"
     inkscape:pageopacity="0"
     inkscape:pagecheckerboard="0"
     inkscape:deskcolor="#505050"
     inkscape:document-units="mm"
     showguides="true"
     inkscape:zoom="0.70710678"
     inkscape:cx="152.73506"
     inkscape:cy="102.53048"
     inkscape:window-width="1366"
     inkscape:window-height="697"
     inkscape:window-x="-8"
     inkscape:window-y="-8"
     inkscape:window-maximized="1"
     inkscape:current-layer="layer1" />
  <defs
     id="defs1" />
  <g
     inkscape:label="Layer 1"
     inkscape:groupmode="layer"
     id="layer1">
    <path
       id="path1"
       style="fill:#000000;stroke:#ffffff;stroke-width:2;stroke-linecap:round;stroke-linejoin:round;stroke-dasharray:none;paint-order:markers fill stroke"
       inkscape:transform-center-y="19.90102"
       d="M 40.628019,45.656256 21.996667,45.715651 8.1210626,58.149408 8.1104136,9.5838709 Z"
       sodipodi:nodetypes="ccccc"
       inkscape:transform-center-x="-14.574798" />
    <path
       style="fill:#000000;stroke:#ffffff;stroke-width:3;stroke-linecap:round;stroke-linejoin:round;stroke-dasharray:none;paint-order:stroke markers fill"
       d="m 55.400354,31.207694 c -5.237783,0 -9.127508,4.164665 -9.127508,9.181038 a 1.2446046,1.2160328 0 0 0 1.244526,1.215953 1.2446046,1.2160328 0 0 0 1.244523,-1.215953 c 0,-3.834813 2.712485,-6.74913 6.638459,-6.74913 2.190428,0 3.759296,0.631803 4.834497,1.728934 1.075201,1.09713 1.7187,2.745556 1.7187,5.020196 0,1.887675 -1.57754,3.60864 -3.380558,4.871125 -1.803018,1.262484 -3.62288,1.958387 -3.62288,1.958387 a 1.244729,1.2161544 0 0 0 -0.795778,1.134111 v 7.307417 a 1.2446046,1.2160328 0 0 0 1.246019,1.215954 1.2446046,1.2160328 0 0 0 1.244524,-1.215954 V 49.13571 c 0.74837,-0.325599 1.92381,-0.87949 3.379064,-1.898466 2.095934,-1.467588 4.418658,-3.727635 4.418658,-6.848512 0,-2.733912 -0.809466,-5.069421 -2.40977,-6.702363 -1.600303,-1.63294 -3.92911,-2.478675 -6.632476,-2.478675 z"
       id="path3" />
    <ellipse
       style="fill:#000000;stroke:#ffffff;stroke-width:3;stroke-linecap:round;stroke-linejoin:round;stroke-dasharray:none;paint-order:stroke markers fill"
       id="path2"
       cx="55.394966"
       cy="61.687607"
       rx="1.9526373"
       ry="1.9078115" />
  </g>
  <metadata
     id="metadata1">
    <rdf:RDF>
      <cc:Work
         rdf:about="">
        <cc:license
           rdf:resource="https://opensource.org/license/mit" />
      </cc:Work>
    </rdf:RDF>
  </metadata>
</svg>
