<?xml version="1.0" encoding="UTF-8" standalone="no"?>
<!-- Created with Inkscape (http://www.inkscape.org/) -->

<svg
   width="1280"
   height="640"
   viewBox="0 0 338.66666 169.33333"
   version="1.1"
   id="svg1"
   inkscape:version="1.4 (86a8ad7, 2024-10-11)"
   sodipodi:docname="cover-social.svg"
   xml:space="preserve"
   inkscape:export-filename="..\png\cover-social.png"
   inkscape:export-xdpi="96"
   inkscape:export-ydpi="96"
   xmlns:inkscape="http://www.inkscape.org/namespaces/inkscape"
   xmlns:sodipodi="http://sodipodi.sourceforge.net/DTD/sodipodi-0.dtd"
   xmlns="http://www.w3.org/2000/svg"
   xmlns:svg="http://www.w3.org/2000/svg"
   xmlns:rdf="http://www.w3.org/1999/02/22-rdf-syntax-ns#"
   xmlns:cc="http://creativecommons.org/ns#"><sodipodi:namedview
     id="namedview1"
     pagecolor="#505050"
     bordercolor="#eeeeee"
     borderopacity="1"
     inkscape:showpageshadow="0"
     inkscape:pageopacity="0"
     inkscape:pagecheckerboard="0"
     inkscape:deskcolor="#505050"
     inkscape:document-units="mm"
     inkscape:zoom="0.3535534"
     inkscape:cx="510.53108"
     inkscape:cy="295.57063"
     inkscape:window-width="1366"
     inkscape:window-height="697"
     inkscape:window-x="-8"
     inkscape:window-y="-8"
     inkscape:window-maximized="1"
     inkscape:current-layer="layer1"><inkscape:page
       x="0"
       y="0"
       width="338.66666"
       height="169.33333"
       id="page1"
       margin="0"
       bleed="0" /></sodipodi:namedview><defs
     id="defs1"><filter
       style="color-interpolation-filters:sRGB"
       inkscape:label="Drop Shadow"
       id="filter18"
       x="-0.063770892"
       y="-0.088258813"
       width="1.1229329"
       height="1.1742847"><feFlood
         result="flood"
         in="SourceGraphic"
         flood-opacity="0.435294"
         flood-color="rgb(0,0,0)"
         id="feFlood17" /><feGaussianBlur
         result="blur"
         in="SourceGraphic"
         stdDeviation="2.500000"
         id="feGaussianBlur17" /><feOffset
         result="offset"
         in="blur"
         dx="0.000000"
         dy="0.000000"
         id="feOffset17" /><feComposite
         result="comp1"
         operator="in"
         in="flood"
         in2="offset"
         id="feComposite17" /><feComposite
         result="comp2"
         operator="over"
         in="SourceGraphic"
         in2="comp1"
         id="feComposite18" /></filter></defs><g
     inkscape:label="Layer 1"
     inkscape:groupmode="layer"
     id="layer1"><rect
       style="opacity:1;fill:#1a1a1a;stroke-width:1.63299;stroke-linecap:round;stroke-linejoin:round;paint-order:markers fill stroke"
       id="rect2"
       width="338.66666"
       height="169.33333"
       x="3.3333333e-06"
       y="-1.7763568e-15" /><path
       id="rect2-2"
       style="fill:#161616;fill-opacity:1;stroke-width:1.5;stroke-linecap:round;stroke-linejoin:round;paint-order:markers fill stroke"
       d="M 0,0 V 67.134403 A 85.822693,85.822693 0 0 0 54.241134,86.628821 85.822693,85.822693 0 0 0 140.06432,0.80615234 85.822693,85.822693 0 0 0 140.04468,0 Z" /><path
       id="rect2-9"
       style="fill:#161616;fill-opacity:1;stroke-width:1.5;stroke-linecap:round;stroke-linejoin:round;paint-order:markers fill stroke"
       d="m 227.60781,26.458332 a 114.67037,114.67037 0 0 0 -74.30192,107.018268 114.67037,114.67037 0 0 0 5.96966,35.85673 H 338.66667 V 43.230435 a 114.67037,114.67037 0 0 0 -29.5982,-16.772103 z" /><rect
       style="fill:#101010;fill-opacity:1;stroke-width:1.06016;stroke-linecap:round;stroke-linejoin:round;paint-order:markers fill stroke"
       id="rect2-4"
       width="170.45918"
       height="141.79691"
       x="152.83009"
       y="13.768211"
       rx="16.283903"
       ry="15.356693" /><path
       fill="#0078d4"
       d="m 190.08139,104.84509 h -3.72683 v 3.72522 h 3.72683 z m -4.13483,0 h -3.72683 v 3.72522 h 3.72683 z m 4.13483,4.13483 h -3.72683 v 3.72684 h 3.72683 z m -4.13483,0 h -3.72683 v 3.72684 h 3.72683"
       id="path1"
       style="fill:#ffffff;stroke-width:0.00161265" /><text
       xml:space="preserve"
       style="font-style:normal;font-variant:normal;font-weight:bold;font-stretch:normal;font-size:25.4px;line-height:0;font-family:Figtree;-inkscape-font-specification:'Figtree Bold';text-align:start;letter-spacing:0px;writing-mode:lr-tb;direction:ltr;text-anchor:start;fill:#ffffff;fill-opacity:1;stroke:none;stroke-width:1.5;stroke-linecap:round;stroke-linejoin:round;stroke-dasharray:none;paint-order:markers fill stroke"
       x="181.41539"
       y="88.209969"
       id="text2"><tspan
         sodipodi:role="line"
         id="tspan2"
         style="font-style:normal;font-variant:normal;font-weight:bold;font-stretch:normal;font-size:25.4px;line-height:0.9;font-family:Figtree;-inkscape-font-specification:'Figtree Bold';fill:#ffffff;stroke:none;stroke-width:1.5"
         x="181.41539"
         y="88.209969">mdernize</tspan><tspan
         sodipodi:role="line"
         style="font-style:normal;font-variant:normal;font-weight:300;font-stretch:normal;font-size:8.46667px;line-height:0.9;font-family:Figtree;-inkscape-font-specification:'Figtree Light';fill:#ffffff;stroke:none;stroke-width:1.5"
         x="181.41539"
         y="99.639969"
         id="tspan3">minimalst cursor theme</tspan></text><path
       style="fill:none;fill-opacity:1;stroke:#ffffff;stroke-width:0.744165;stroke-linecap:square;stroke-linejoin:round;stroke-dasharray:none;paint-order:markers fill stroke"
       d="m 193.3255,104.76536 v 8.02113"
       id="path3" /><text
       xml:space="preserve"
       style="font-style:normal;font-variant:normal;font-weight:300;font-stretch:normal;font-size:6.3006px;line-height:0.9;font-family:'Segoe UI';-inkscape-font-specification:'Segoe UI Light';text-align:start;letter-spacing:0px;writing-mode:lr-tb;direction:ltr;text-anchor:start;fill:none;fill-opacity:1;stroke:#ffffff;stroke-width:0.744165;stroke-linecap:square;stroke-linejoin:round;stroke-dasharray:none;paint-order:markers fill stroke"
       x="196.34418"
       y="110.98115"
       id="text4"><tspan
         sodipodi:role="line"
         id="tspan4"
         style="font-style:normal;font-variant:normal;font-weight:300;font-stretch:normal;font-family:'Segoe UI';-inkscape-font-specification:'Segoe UI Light';fill:#ffffff;stroke:none;stroke-width:0.744165"
         x="196.34418"
         y="110.98115">Windows only</tspan></text><path
       d="m 18.180166,148.49075 q 0.502694,-0.13999 1.018111,-0.13999 0.515417,0 1.011759,0.13999 0.502693,0.13999 0.916296,0.38815 0.419971,0.24817 0.769956,0.59815 0.349974,0.34997 0.598145,0.76995 0.248161,0.41361 0.381789,0.90994 0.139961,0.49633 0.139961,1.01175 0,0.62359 -0.197262,1.20901 -0.190904,0.57906 -0.534512,1.04993 -0.343613,0.46451 -0.827212,0.82086 -0.477241,0.35633 -1.043567,0.54723 -0.133664,0.0318 -0.197267,-0.0318 -0.0636,-0.0636 -0.0636,-0.15272 0,-0.0191 0,-0.38179 0.0058,-0.36271 0.0058,-0.66814 0,-0.4836 -0.260885,-0.69995 0.197261,-0.0255 0.362694,-0.0573 0.171819,-0.0382 0.349984,-0.10182 0.184528,-0.07 0.330895,-0.16544 0.146407,-0.0954 0.279975,-0.23544 0.133658,-0.14635 0.222704,-0.33088 0.0891,-0.18453 0.13996,-0.43907 0.0573,-0.25452 0.0573,-0.55996 0,-0.59814 -0.394508,-1.02448 0.02552,-0.0573 0.04454,-0.12726 0.01903,-0.0764 0.03181,-0.20999 0.01903,-0.13999 -0.01318,-0.31179 -0.02551,-0.17817 -0.101858,-0.36271 -0.01318,-0.006 -0.0381,-0.006 -0.02551,-0.006 -0.120905,0.006 -0.09541,0.006 -0.203623,0.0382 -0.108157,0.0318 -0.29907,0.1209 -0.184543,0.0891 -0.381794,0.23545 -0.458156,-0.13363 -0.96085,-0.13363 -0.496322,0 -0.948121,0.13363 -0.203623,-0.14 -0.394522,-0.22908 -0.184528,-0.0954 -0.299061,-0.12727 -0.114607,-0.0318 -0.203623,-0.0382 -0.08266,-0.0127 -0.12091,-0.006 l -0.0318,0.006 q -0.07636,0.18454 -0.108156,0.36271 -0.02551,0.1718 -0.01318,0.31179 0.01903,0.13363 0.03825,0.20999 0.01903,0.07 0.04454,0.12726 -0.394523,0.42634 -0.394523,1.02448 0,0.30544 0.05085,0.55997 0.0573,0.25453 0.13996,0.43906 0.08911,0.18453 0.222718,0.33088 0.139961,0.14 0.27998,0.23544 0.146407,0.0954 0.330885,0.16545 0.184533,0.0636 0.349975,0.10181 0.165447,0.0318 0.362704,0.0573 -0.1909,0.1718 -0.2418,0.50906 -0.08265,0.0382 -0.171813,0.0636 -0.08266,0.0255 -0.216347,0.0318 -0.127212,0.006 -0.248161,-0.0191 -0.120909,-0.0318 -0.254538,-0.12727 -0.127207,-0.10181 -0.222703,-0.26726 -0.03825,-0.0573 -0.0891,-0.11453 -0.04454,-0.0573 -0.120905,-0.12089 -0.07005,-0.07 -0.171809,-0.11453 -0.101854,-0.0446 -0.203618,-0.0446 -0.114459,0.006 -0.159071,0.0382 -0.03825,0.0255 -0.01318,0.07 0.02551,0.0382 0.07005,0.0763 0.04454,0.0382 0.108161,0.07 0.108156,0.0573 0.222713,0.2418 0.12091,0.18453 0.165447,0.29907 0.02552,0.0636 0.0573,0.12091 0.03181,0.0573 0.0891,0.13363 0.0636,0.07 0.159085,0.1209 0.101859,0.0509 0.229081,0.0891 0.133658,0.0318 0.324517,0.0318 0.197262,0 0.419981,-0.0509 0,0.1909 0.0058,0.44543 0.0058,0.24816 0.0058,0.26725 0,0.0891 -0.07005,0.15272 -0.0636,0.0573 -0.197262,0.0318 -0.559955,-0.1909 -1.043568,-0.54088 -0.483598,-0.35633 -0.827211,-0.82085 -0.343608,-0.47087 -0.540875,-1.05629 -0.197261,-0.58542 -0.197261,-1.20901 0,-0.51542 0.133658,-1.01175 0.13996,-0.49634 0.388166,-0.90994 0.248156,-0.41998 0.59813,-0.76995 0.349985,-0.34998 0.763594,-0.59815 0.419964,-0.24816 0.916301,-0.38815 z"
       id="text5"
       style="font-weight:300;font-size:8.46667px;line-height:0.9;font-family:Figtree;-inkscape-font-specification:'Figtree Light';letter-spacing:0px;fill:#333333;stroke-width:1.46555;stroke-linecap:square;stroke-linejoin:round;paint-order:markers fill stroke"
       aria-label="ïˆ" /><text
       xml:space="preserve"
       style="font-style:normal;font-variant:normal;font-weight:300;font-stretch:normal;font-size:4.23333px;line-height:0.9;font-family:Figtree;-inkscape-font-specification:'Figtree Light';text-align:start;letter-spacing:0px;writing-mode:lr-tb;direction:ltr;text-anchor:start;fill:#333333;fill-opacity:1;stroke:none;stroke-width:1;stroke-linecap:square;stroke-linejoin:round;stroke-dasharray:none;paint-order:markers fill stroke"
       x="24.612263"
       y="153.56021"
       id="text6"><tspan
         sodipodi:role="line"
         id="tspan5"
         style="font-size:4.23333px;fill:#333333;stroke-width:1"
         x="24.612263"
         y="153.56021">user8595/mdernize</tspan></text><g
       id="g7"
       transform="translate(-1.2678114,15.083571)"
       style="filter:url(#filter18)"><path
         id="path1-9"
         style="fill:#000000;stroke:#ffffff;stroke-width:1.35201;stroke-linecap:round;stroke-linejoin:round;stroke-dasharray:none;paint-order:markers fill stroke"
         inkscape:transform-center-y="13.453092"
         d="m 57.124747,56.232468 -12.59479,0.04016 -9.379908,8.405218 -0.0072,-32.830297 z"
         sodipodi:nodetypes="ccccc"
         inkscape:transform-center-x="-9.8525603" /><g
         inkscape:label="Layer 1"
         id="layer1-5"
         transform="matrix(0.67599986,0,0,0.67599986,66.395673,23.203079)"><g
           id="path1-2"
           inkscape:transform-center-x="-14.574798"
           inkscape:transform-center-y="19.90102" /><g
           id="path2"><path
             style="fill:#000000;stroke:#ffffff;stroke-width:2.99999;stroke-linecap:round;stroke-linejoin:round;paint-order:stroke markers fill"
             d="m 19.457759,17.399364 c 0,7.535488 1.140975,22.149739 -0.990578,22.149739 -2.131553,0 -3.269917,-2.110348 -4.611182,-3.97404 -2.816992,-3.91422 -4.976823,-1.576957 -4.282306,2.529157 0.773161,4.571069 5.820585,19.596411 18.163,19.596411 12.220398,0 16.207758,-18.727685 16.207758,-18.727685 0,0 0.715135,-2.060751 -1.746891,-3.567678 -0.375675,-0.229938 -1.92215,0.104904 -2.488246,-0.09731 -0.697422,-0.249136 -1.565198,-1.407179 -3.236139,-1.653966 -0.725183,-0.107102 -2.114137,0.240452 -2.590067,0.219726 -1.5699,-0.06836 -2.308943,-1.166286 -3.572937,-1.205348 -1.30098,-0.0402 -5.408381,0.634047 -5.636874,-0.288841 -0.278831,-1.126206 -0.136248,-6.144322 -0.304829,-15.046094 -0.05647,-2.982052 -1.50372,-4.045601 -2.408978,-4.045601 -0.952422,0 -2.501731,1.074365 -2.501731,4.11153 z"
             id="path3-4"
             sodipodi:nodetypes="szssscsssssssss" /></g></g><g
         inkscape:label="Layer 1"
         id="layer1-4"
         transform="matrix(0.67599986,0,0,0.67599986,23.239893,67.673725)"><g
           id="path1-23"
           inkscape:transform-center-x="-14.574798"
           inkscape:transform-center-y="19.90102" /><g
           id="path2-2"><path
             id="path4-4"
             style="stroke:#ffffff;stroke-width:3;stroke-linecap:round;stroke-linejoin:round;stroke-dasharray:none;paint-order:stroke markers fill"
             inkscape:transform-center-x="-1.897251"
             d="M 33.866667,9.5870117 26.240776,20.970296 h 6.375321 V 32.617131 H 20.970296 V 26.240776 L 9.5870117,33.866667 20.970296,41.492558 v -6.375322 h 11.645801 v 11.645801 h -6.375321 l 7.625891,11.383285 7.625891,-11.383285 H 35.116203 V 35.117236 h 11.646834 v 6.375322 L 58.146322,33.866667 46.763037,26.240776 v 6.376355 H 35.116203 V 20.970296 h 6.376355 z" /></g></g><g
         id="g6"
         transform="matrix(0.67599986,0,0,0.67599986,237.4307,119.09118)"><circle
           style="opacity:0.5;fill:none;stroke:#333333;stroke-width:8;stroke-linecap:round;stroke-linejoin:round;stroke-dasharray:none;paint-order:stroke markers fill"
           id="path3-0-4-8-8-5-6-2-2-7-06-8"
           cx="-171.27524"
           cy="-105.3148"
           r="20.743696" /><path
           style="fill:none;stroke:#55ddff;stroke-width:8;stroke-linecap:round;stroke-linejoin:round;stroke-dasharray:none;paint-order:stroke markers fill"
           id="path3-0-3-6-4-8-9-3-0-6-5-18-8"
           sodipodi:type="arc"
           sodipodi:cx="-171.27524"
           sodipodi:cy="-105.3148"
           sodipodi:rx="20.743696"
           sodipodi:ry="20.743696"
           sodipodi:start="4.712389"
           sodipodi:end="5.2359878"
           sodipodi:arc-type="arc"
           d="m -171.27524,-126.05849 a 20.743696,20.743696 0 0 1 10.37185,2.77913"
           sodipodi:open="true" /></g><g
         inkscape:label="Layer 1"
         id="layer1-1"
         transform="matrix(0.67599986,0,0,0.67599986,61.567023,69.083281)"><g
           id="path1-8"
           inkscape:transform-center-x="-14.574798"
           inkscape:transform-center-y="19.90102" /><g
           id="path2-9"><g
             id="g13"
             inkscape:transform-center-y="21.94874"
             transform="matrix(1.033364,-1.033364,1.033364,1.033364,-27.053874,26.737584)"
             inkscape:transform-center-x="-21.94874"
             style="stroke-width:0.684277"><path
               d="m 28.02723,47.593978 h -3.999756 v 3.750159 c 0,1.104569 0.895309,2.000394 1.999878,2.000394 1.104569,0 1.999878,-0.895825 1.999878,-2.000394 z"
               style="fill:#000000;stroke:#ffffff;stroke-width:2.39497;stroke-linecap:round;stroke-linejoin:round;stroke-dasharray:none;paint-order:stroke markers fill"
               id="path9" /><path
               d="m 26.027352,11.688811 -1.999878,3.543837 v 31.765 h 3.999756 v -31.765 z"
               style="fill:#000000;stroke:#ffffff;stroke-width:2.39497;stroke-linecap:round;stroke-linejoin:round;stroke-dasharray:none;paint-order:stroke markers fill"
               id="path8"
               sodipodi:nodetypes="cccccc" /></g></g></g><g
         inkscape:label="Layer 1"
         id="layer1-3"
         transform="matrix(0.67599986,0,0,0.67599986,98.754805,66.535428)"><path
           style="stroke-linecap:round;stroke-linejoin:round;paint-order:markers fill stroke"
           d="M 33.866667,10.345973 V 57.387361"
           id="path2-8" /><path
           id="path3-7"
           style="stroke:#ffffff;stroke-width:1.5;stroke-linecap:round;stroke-linejoin:round;stroke-dasharray:none;paint-order:stroke markers fill"
           d="M 33.867797,7.1532572 A 0.95814057,0.95814057 0 0 0 32.909786,8.1112691 V 32.909786 H 8.1112691 a 0.95814057,0.95814057 0 0 0 -0.9580119,0.958011 0.95814057,0.95814057 0 0 0 0.9580119,0.958011 H 32.909786 v 24.796255 a 0.95814057,0.95814057 0 0 0 0.958011,0.958011 0.95814057,0.95814057 0 0 0 0.958011,-0.958011 V 34.825808 h 24.796255 a 0.95814057,0.95814057 0 0 0 0.958011,-0.958011 0.95814057,0.95814057 0 0 0 -0.958011,-0.958011 H 34.825808 V 8.1112691 A 0.95814057,0.95814057 0 0 0 33.867797,7.1532572 Z" /></g></g></g><metadata
     id="metadata1"><rdf:RDF><cc:Work
         rdf:about=""><cc:license
           rdf:resource="https://opensource.org/license/mit" /></cc:Work></rdf:RDF></metadata></svg>
