<?xml version="1.0" encoding="UTF-8" standalone="no"?>
<!-- Created with Inkscape (http://www.inkscape.org/) -->

<svg
   width="1280"
   height="540"
   viewBox="0 0 338.66666 142.875"
   version="1.1"
   id="svg1"
   inkscape:version="1.4.2 (f4327f4, 2025-05-13)"
   sodipodi:docname="cover.svg"
   xml:space="preserve"
   inkscape:export-filename="..\png\cover.png"
   inkscape:export-xdpi="150"
   inkscape:export-ydpi="150"
   xmlns:inkscape="http://www.inkscape.org/namespaces/inkscape"
   xmlns:sodipodi="http://sodipodi.sourceforge.net/DTD/sodipodi-0.dtd"
   xmlns="http://www.w3.org/2000/svg"
   xmlns:svg="http://www.w3.org/2000/svg"
   xmlns:rdf="http://www.w3.org/1999/02/22-rdf-syntax-ns#"
   xmlns:cc="http://creativecommons.org/ns#"><sodipodi:namedview
     id="namedview1"
     pagecolor="#505050"
     bordercolor="#eeeeee"
     borderopacity="1"
     inkscape:showpageshadow="0"
     inkscape:pageopacity="0"
     inkscape:pagecheckerboard="0"
     inkscape:deskcolor="#505050"
     inkscape:document-units="mm"
     inkscape:zoom="0.6276854"
     inkscape:cx="796.57739"
     inkscape:cy="352.88379"
     inkscape:window-width="1366"
     inkscape:window-height="697"
     inkscape:window-x="-8"
     inkscape:window-y="-8"
     inkscape:window-maximized="1"
     inkscape:current-layer="layer1"><inkscape:page
       x="0"
       y="0"
       width="338.66666"
       height="142.875"
       id="page1"
       margin="0"
       bleed="0" /></sodipodi:namedview><defs
     id="defs1"><filter
       style="color-interpolation-filters:sRGB;"
       inkscape:label="Drop Shadow"
       id="filter18"
       x="-0.063770892"
       y="-0.088258813"
       width="1.1229329"
       height="1.1742847"><feFlood
         result="flood"
         in="SourceGraphic"
         flood-opacity="0.435294"
         flood-color="rgb(0,0,0)"
         id="feFlood17" /><feGaussianBlur
         result="blur"
         in="SourceGraphic"
         stdDeviation="2.500000"
         id="feGaussianBlur17" /><feOffset
         result="offset"
         in="blur"
         dx="0.000000"
         dy="0.000000"
         id="feOffset17" /><feComposite
         result="comp1"
         operator="in"
         in="flood"
         in2="offset"
         id="feComposite17" /><feComposite
         result="comp2"
         operator="over"
         in="SourceGraphic"
         in2="comp1"
         id="feComposite18" /></filter><inkscape:path-effect
       effect="bspline"
       id="path-effect2"
       is_visible="true"
       lpeversion="1.3"
       weight="33.333333"
       steps="2"
       helper_size="0"
       apply_no_weight="true"
       apply_with_weight="true"
       only_selected="false"
       uniform="false" /><inkscape:path-effect
       effect="bspline"
       id="path-effect2-4"
       is_visible="true"
       lpeversion="1.3"
       weight="33.333333"
       steps="2"
       helper_size="0"
       apply_no_weight="true"
       apply_with_weight="true"
       only_selected="false"
       uniform="false" /><filter
       style="color-interpolation-filters:sRGB"
       inkscape:label="Drop Shadow"
       id="filter18-7"
       x="-0.063770892"
       y="-0.088258813"
       width="1.1229329"
       height="1.1742847"><feFlood
         result="flood"
         in="SourceGraphic"
         flood-opacity="0.435294"
         flood-color="rgb(0,0,0)"
         id="feFlood17-6" /><feGaussianBlur
         result="blur"
         in="SourceGraphic"
         stdDeviation="2.500000"
         id="feGaussianBlur17-1" /><feOffset
         result="offset"
         in="blur"
         dx="0.000000"
         dy="0.000000"
         id="feOffset17-4" /><feComposite
         result="comp1"
         operator="in"
         in="flood"
         in2="offset"
         id="feComposite17-2" /><feComposite
         result="comp2"
         operator="over"
         in="SourceGraphic"
         in2="comp1"
         id="feComposite18-3" /></filter><filter
       style="color-interpolation-filters:sRGB"
       inkscape:label="Drop Shadow"
       id="filter18-6"
       x="-0.063770892"
       y="-0.088258813"
       width="1.1229329"
       height="1.1742847"><feFlood
         result="flood"
         in="SourceGraphic"
         flood-opacity="0.435294"
         flood-color="rgb(0,0,0)"
         id="feFlood17-5" /><feGaussianBlur
         result="blur"
         in="SourceGraphic"
         stdDeviation="2.500000"
         id="feGaussianBlur17-0" /><feOffset
         result="offset"
         in="blur"
         dx="0.000000"
         dy="0.000000"
         id="feOffset17-2" /><feComposite
         result="comp1"
         operator="in"
         in="flood"
         in2="offset"
         id="feComposite17-8" /><feComposite
         result="comp2"
         operator="over"
         in="SourceGraphic"
         in2="comp1"
         id="feComposite18-6" /></filter><clipPath
       clipPathUnits="userSpaceOnUse"
       id="clipPath17"><path
         id="path17"
         style="fill:#333333;fill-opacity:0.0840909;stroke:none;stroke-width:6.15945;stroke-linecap:round;stroke-linejoin:round;stroke-dasharray:none;stroke-opacity:0.08;paint-order:markers fill stroke"
         inkscape:transform-center-y="190.94083"
         d="m 319.34835,128.13866 -57.37938,0.18325 -42.73301,38.29252 -0.0326,-149.568427 z"
         sodipodi:nodetypes="ccccc"
         inkscape:transform-center-x="-139.83826" /></clipPath></defs><g
     inkscape:label="Layer 1"
     inkscape:groupmode="layer"
     id="layer1"><rect
       style="opacity:1;fill:#1a1a1a;stroke-width:1.5;stroke-linecap:round;stroke-linejoin:round;paint-order:markers fill stroke"
       id="rect2"
       width="338.66666"
       height="142.875"
       x="3.3333333e-06"
       y="-5.6843419e-14" /><rect
       style="fill:#ffffff;fill-opacity:0.0204546;stroke-width:1.5;stroke-linecap:round;stroke-linejoin:round;paint-order:markers fill stroke"
       id="rect2-0"
       width="338.66666"
       height="142.875"
       x="3.3333333e-06"
       y="-5.6843419e-14"
       clip-path="url(#clipPath17)"
       transform="translate(-37.555712)" /><g
       id="g6"
       transform="matrix(0.95410276,0,0,0.95410276,7.7719326,3.2787841)"><rect
         style="fill:#000000;fill-opacity:0.5;stroke-width:0.71081;stroke-linecap:round;stroke-linejoin:round;paint-order:markers fill stroke"
         id="rect2-2-1"
         width="183.68085"
         height="59.154942"
         x="77.492905"
         y="47.92115"
         ry="9.516387" /><g
         id="g16"
         transform="translate(-1.1922515)"><g
           inkscape:label="Layer 1"
           id="layer1-5"
           transform="matrix(0.32098753,0,0,0.32098753,175.19445,76.675833)"><g
             id="path1"
             inkscape:transform-center-x="-14.574798"
             inkscape:transform-center-y="19.90102" /><g
             id="path2"><g
               id="g2"
               transform="translate(1.1667286,3.2687652)"><circle
                 style="fill:#000000;stroke:#ffffff;stroke-width:2;stroke-linecap:round;stroke-linejoin:round;stroke-dasharray:none;paint-order:markers fill stroke"
                 id="path10-4"
                 cx="52.867157"
                 cy="45.203663"
                 r="4.4951811" /><path
                 style="fill:#000000;stroke:#ffffff;stroke-width:2;stroke-linecap:round;stroke-linejoin:round;stroke-dasharray:none;paint-order:markers fill stroke"
                 id="path10-8-3"
                 sodipodi:type="arc"
                 sodipodi:cx="52.867149"
                 sodipodi:cy="-62.4212"
                 sodipodi:rx="8.3395195"
                 sodipodi:ry="9.3015795"
                 sodipodi:start="0"
                 sodipodi:end="3.1415927"
                 sodipodi:arc-type="slice"
                 d="m 61.206669,-62.4212 a 8.3395195,9.3015795 0 0 1 -4.16976,8.055404 8.3395195,9.3015795 0 0 1 -8.33952,0 8.3395195,9.3015795 0 0 1 -4.169759,-8.055404 h 8.339519 z"
                 transform="scale(1,-1)" /></g><path
               style="fill:#000000;stroke:#ffffff;stroke-width:2;stroke-linecap:round;stroke-linejoin:round;stroke-dasharray:none;paint-order:markers fill stroke"
               d="m 19.457259,14.444768 c -0.03823,23.038413 0.375051,24.281649 -1.519245,23.128904 -1.894296,-1.152744 -2.74075,-2.46113 -4.082015,-4.324822 -2.816992,-3.91422 -4.976823,-1.576957 -4.282306,2.529157 0.773161,4.571069 5.820585,19.596411 18.163,19.596411 12.220398,0 16.207758,-18.727685 16.207758,-18.727685 0,0 0.715135,-2.060751 -1.746891,-3.567678 -0.375675,-0.229938 -1.92215,0.104904 -2.488246,-0.09731 -0.697422,-0.249136 -1.565198,-1.407179 -3.236139,-1.653966 -0.725183,-0.107102 -2.114137,0.240452 -2.590067,0.219726 -1.5699,-0.06836 -2.308943,-1.166286 -3.572937,-1.205348 -1.30098,-0.0402 -5.107707,0.661912 -5.107707,-0.288841 0,-1.166206 0.04193,-6.671893 0.04193,-15.575261 0,-3.149878 -1.882529,-4.000248 -2.787787,-4.000248 -0.759492,0 -2.994034,0.766129 -2.999345,3.966961 z"
               id="path3-4-5"
               sodipodi:nodetypes="szssscssssssssss" /></g></g><path
           id="path4"
           style="stroke:#ffffff;stroke-width:0.64248845;stroke-linecap:round;stroke-linejoin:round;stroke-dasharray:none;paint-order:markers fill stroke;stroke-opacity:1"
           d="m 233.01524,79.723598 c -0.4986,6.7e-5 -0.90893,0.411341 -0.909,0.909658 v 7.358377 h -7.35837 c -0.49832,6.7e-5 -0.9096,0.410402 -0.90966,0.908994 6e-5,0.498593 0.41106,0.909591 0.90966,0.909658 h 7.35837 v 7.357051 6.42e-4 c 7e-5,0.498317 0.41068,0.908927 0.909,0.908995 0.49831,-6.8e-5 0.90959,-0.410405 0.90966,-0.908995 v -6.42e-4 -7.357051 h 7.35704 6.5e-4 c 0.49858,-6.7e-5 0.90892,-0.411341 0.90899,-0.909658 -7e-5,-0.498316 -0.41068,-0.908927 -0.90899,-0.908994 h -6.5e-4 -7.35704 v -7.358377 c -7e-5,-0.498593 -0.41107,-0.909591 -0.90966,-0.909658 z" /><g
           inkscape:label="Layer 1"
           id="layer1-2"
           transform="matrix(0.32098753,0,0,0.32098753,141.09187,78.029673)"><g
             id="path1-3"
             inkscape:transform-center-x="-14.574798"
             inkscape:transform-center-y="19.90102" /><path
             id="path3"
             style="fill:#000000;stroke:#ffffff;stroke-width:4;stroke-linecap:round;stroke-linejoin:round;stroke-dasharray:none;paint-order:stroke fill markers"
             d="m 26.646436,7.8532674 a 1,1 0 0 0 -0.999939,1.0004557 1,1 0 0 0 0.999939,0.999939 h 6.220808 V 57.879154 h -6.220808 a 1,1 0 0 0 -0.999939,0.999939 1,1 0 0 0 0.999939,0.999939 h 14.439428 a 1,1 0 0 0 0.999939,-0.999939 1,1 0 0 0 -0.999939,-0.999939 H 34.867122 V 9.8536621 h 6.218742 a 1,1 0 0 0 0.999939,-0.999939 1,1 0 0 0 -0.999939,-1.0004557 h -7.218681 z" /></g><g
           inkscape:label="Layer 1"
           id="layer1-6"
           transform="matrix(0.32098753,0,0,0.32098753,95.300849,78.029508)"><g
             id="path1-8"
             inkscape:transform-center-x="-14.574798"
             inkscape:transform-center-y="19.90102" /><g
             id="path2-5"><circle
               style="fill:#000000;stroke:none;stroke-width:5;stroke-linecap:round;stroke-linejoin:round;stroke-dasharray:none;paint-order:markers fill stroke"
               id="path3-8"
               cx="33.866665"
               cy="33.866665"
               r="22.779846" /><g
               id="g4"
               transform="matrix(0.87121029,0,0,0.87121029,4.3616781,4.3616781)"
               style="stroke-width:1.14783"><circle
                 style="fill:none;stroke:#ff2a2a;stroke-width:4.59131;stroke-linecap:round;stroke-linejoin:round;stroke-dasharray:none;paint-order:markers fill stroke"
                 id="path3-7"
                 cx="33.866665"
                 cy="33.866665"
                 r="18.851084" /><path
                 style="fill:none;stroke:#ff2a2a;stroke-width:4.59131;stroke-linecap:round;stroke-linejoin:round;stroke-dasharray:none;paint-order:stroke markers fill"
                 d="m 45.737212,21.996122 -23.74109,23.74109"
                 id="path4-6" /></g></g></g><g
           inkscape:label="Layer 1"
           id="layer1-3"
           transform="matrix(0.32098753,0,0,0.32098753,129.35109,78.190052)"><g
             id="path1-4"
             inkscape:transform-center-x="-14.574798"
             inkscape:transform-center-y="19.90102" /><g
             id="path2-1"><g
               id="path3-1"><path
                 style="stroke-linecap:round;stroke-linejoin:round;paint-order:markers fill stroke"
                 d="M 33.866667,11.837536 V 55.895797"
                 id="path5" /><path
                 id="path6"
                 style="fill:#000000;stroke:#ffffff;stroke-width:3.5;stroke-linecap:round;stroke-linejoin:round;stroke-dasharray:none;paint-order:stroke markers fill"
                 d="M 33.866667,9.5870117 26.240776,20.970296 h 6.376355 v 34.925517 a 1.25,1.25 0 0 0 1.250052,1.250053 1.25,1.25 0 0 0 1.250053,-1.250053 V 20.970296 h 6.375322 z" /></g></g></g><g
           inkscape:label="Layer 1"
           id="layer1-8"
           transform="matrix(0.32098753,0,0,0.32098753,113.28525,78.029756)"><g
             id="path1-40"
             inkscape:transform-center-x="-14.574798"
             inkscape:transform-center-y="19.90102" /><g
             id="path2-7"><g
               id="g13"
               inkscape:transform-center-y="21.94874"
               transform="matrix(1.033364,-1.033364,1.033364,1.033364,-27.053874,26.737584)"
               inkscape:transform-center-x="-21.94874"
               style="stroke-width:0.684277"><path
                 d="m 28.02723,47.593978 h -3.999756 v 3.750159 c 0,1.104569 0.895309,2.000394 1.999878,2.000394 1.104569,0 1.999878,-0.895825 1.999878,-2.000394 z"
                 style="fill:#000000;stroke:#ffffff;stroke-width:2.39497;stroke-linecap:round;stroke-linejoin:round;stroke-dasharray:none;paint-order:stroke markers fill"
                 id="path9" /><path
                 d="m 26.027352,11.688811 -1.999878,3.543837 v 31.765 h 3.999756 v -31.765 z"
                 style="fill:#000000;stroke:#ffffff;stroke-width:2.39497;stroke-linecap:round;stroke-linejoin:round;stroke-dasharray:none;paint-order:stroke markers fill"
                 id="path8"
                 sodipodi:nodetypes="cccccc" /></g></g></g><g
           inkscape:label="Layer 1"
           id="layer1-14"
           transform="matrix(0.32098753,0,0,0.32098753,157.99042,77.590433)"><g
             id="path1-60"
             inkscape:transform-center-x="-14.574798"
             inkscape:transform-center-y="19.90102" /><g
             id="path2-71"><path
               style="fill:#000000;stroke:#ffffff;stroke-width:2;stroke-linecap:round;stroke-linejoin:round;stroke-dasharray:none;paint-order:markers fill stroke"
               d="m 18.928092,16.770981 c -7.3e-5,23.038445 0.122207,24.281649 -1.772089,23.128904 -1.894296,-1.152744 -1.958739,-2.46113 -3.300004,-4.324822 -2.816992,-3.91422 -4.976823,-1.576957 -4.282306,2.529157 0.773161,4.571069 5.820585,19.596411 18.163,19.596411 12.220398,0 16.207758,-18.727685 16.207758,-18.727685 0,0 0.715135,-2.060751 -1.746891,-3.567678 -0.375675,-0.229938 -1.92215,0.104904 -2.488246,-0.09731 -0.697422,-0.249136 -1.565198,-1.407179 -3.236139,-1.653966 -0.725183,-0.107102 -2.114137,0.240452 -2.590067,0.219726 -1.5699,-0.06836 -2.308943,-1.166286 -3.572937,-1.205348 -1.30098,-0.0402 -5.107707,0.661912 -5.107707,-0.288841 0,-1.166206 0.04193,-6.671893 0.04193,-15.575261 0,-3.149878 -2.19842,-4.035794 -3.103678,-4.035794 -0.928113,0 -3.212614,0.793713 -3.212624,4.002507 z"
               id="path3-4"
               sodipodi:nodetypes="szssscsssssssss" /></g></g><g
           inkscape:label="Layer 1"
           id="layer1-33"
           transform="matrix(0.32098753,0,0,0.32098753,198.28408,76.664836)"><g
             id="path1-5"
             inkscape:transform-center-x="-14.574798"
             inkscape:transform-center-y="19.90102" /><path
             id="path4-9"
             style="fill:#000000;stroke:#ffffff;stroke-width:4;stroke-linecap:square;stroke-linejoin:round;stroke-dasharray:none;paint-order:stroke markers fill"
             d="m 54.033625,44.909063 c -3.64277,2.29e-4 -6.59567,2.935994 -6.595577,6.557304 0.0037,1.318746 0.352655,2.084747 1.158169,3.692926 l 5.437408,9.599394 5.391105,-9.518404 c 0.720059,-1.782752 1.204156,-2.422555 1.205057,-3.773916 9.3e-5,-3.621537 -2.953164,-6.557396 -6.596162,-6.557304 z m 0,3.876466 c 1.489532,-1.86e-4 2.697174,1.200081 2.697311,2.680838 1.87e-4,1.480985 -1.20755,2.681607 -2.697311,2.681421 -1.489533,-1.35e-4 -2.696913,-1.200663 -2.696726,-2.681421 1.37e-4,-1.48053 1.207422,-2.680703 2.696726,-2.680838 z"
             sodipodi:nodetypes="cccccccccccc" /><path
             style="fill:#000000;stroke:#ffffff;stroke-width:2.00159939;stroke-linecap:round;stroke-linejoin:round;stroke-dasharray:none;paint-order:markers fill stroke"
             d="m 19.457259,14.444768 c -0.03823,23.038413 0.375051,24.281649 -1.519245,23.128904 -1.894296,-1.152744 -2.74075,-2.46113 -4.082015,-4.324822 -2.816992,-3.91422 -4.976823,-1.576957 -4.282306,2.529157 0.773161,4.571069 5.820585,19.596411 18.163,19.596411 12.220398,0 16.207758,-18.727685 16.207758,-18.727685 0,0 0.715135,-2.060751 -1.746891,-3.567678 -0.375675,-0.229938 -1.92215,0.104904 -2.488246,-0.09731 -0.697422,-0.249136 -1.565198,-1.407179 -3.236139,-1.653966 -0.725183,-0.107102 -2.114137,0.240452 -2.590067,0.219726 -1.5699,-0.06836 -2.308943,-1.166286 -3.572937,-1.205348 -1.30098,-0.0402 -5.107707,0.661912 -5.107707,-0.288841 0,-1.166206 0.04193,-6.671893 0.04193,-15.575261 0,-3.149878 -1.882529,-4.000248 -2.787787,-4.000248 -0.759492,0 -2.994034,0.766129 -2.999345,3.966961 z"
             id="path3-4-8"
             sodipodi:nodetypes="szssscssssssssss" /></g></g><g
         id="g17"><path
           id="path1-9"
           style="fill:#000000;stroke:#ffffff;stroke-width:0.641975;stroke-linecap:round;stroke-linejoin:round;stroke-dasharray:none;paint-order:markers fill stroke"
           inkscape:transform-center-y="19.90102"
           d="m 97.890283,70.945174 -5.980431,0.01906 -4.453895,3.991082 -0.0034,-15.588932 z"
           sodipodi:nodetypes="ccccc"
           inkscape:transform-center-x="-14.574798" /><g
           inkscape:label="Layer 1"
           id="layer1-7"
           transform="matrix(0.32098753,0,0,0.32098753,215.27971,56.290081)"><g
             id="path1-95"
             inkscape:transform-center-x="-14.574798"
             inkscape:transform-center-y="19.90102" /><g
             id="path2-4"><path
               id="path4-4"
               style="stroke:#ffffff;stroke-width:3;stroke-linecap:round;stroke-linejoin:round;stroke-dasharray:none;paint-order:stroke markers fill"
               d="M 33.866667,60.331585 42.266124,47.92376 h -7.02317 V 19.809573 h 7.02317 L 33.866667,7.4017485 25.467209,19.809573 H 32.48924 V 47.92376 h -7.022031 z"
               inkscape:transform-center-x="0.19843222"
               inkscape:transform-center-y="-0.11474511" /></g></g><g
           id="g3"
           transform="matrix(0.32098753,0,0,0.32098753,295.38497,-2.9933507)"><g
             id="g5"><path
               id="path1-79"
               style="fill:#000000;stroke:#ffffff;stroke-width:2;stroke-linecap:round;stroke-linejoin:round;stroke-dasharray:none;paint-order:markers fill stroke"
               inkscape:transform-center-y="19.90102"
               d="m -495.41451,231.44775 -18.63135,0.0594 -13.87561,12.43376 -0.0107,-48.56554 z"
               sodipodi:nodetypes="ccccc"
               inkscape:transform-center-x="-14.574798" /><circle
               style="opacity:0.5;fill:none;stroke:#333333;stroke-width:5.84212;stroke-linecap:round;stroke-linejoin:round;stroke-dasharray:none;paint-order:stroke markers fill"
               id="path3-0-4-8-8-5-6-2-2-7-06-8"
               cx="-491.21469"
               cy="199.1006"
               r="15.148376" /></g><path
             style="fill:none;stroke:#55ddff;stroke-width:5.84212;stroke-linecap:round;stroke-linejoin:round;stroke-dasharray:none;paint-order:stroke markers fill"
             id="path3-0-3-6-4-8-9-3-0-6-5-18-8"
             sodipodi:type="arc"
             sodipodi:cx="-491.21469"
             sodipodi:cy="199.1006"
             sodipodi:rx="15.148376"
             sodipodi:ry="15.148376"
             sodipodi:start="4.712389"
             sodipodi:end="5.2359878"
             sodipodi:arc-type="arc"
             d="m -491.21469,183.95222 a 15.148376,15.148376 0 0 1 7.57419,2.0295"
             sodipodi:open="true" /></g><g
           inkscape:label="Layer 1"
           id="layer1-60"
           transform="matrix(0.32098753,0,0,0.32098753,201.75972,56.290081)"><g
             id="path1-6"
             inkscape:transform-center-x="-14.574798"
             inkscape:transform-center-y="19.90102" /><g
             id="path2-6"><path
               id="path4-4-1"
               style="stroke:#ffffff;stroke-width:3;stroke-linecap:round;stroke-linejoin:round;stroke-dasharray:none;paint-order:stroke markers fill"
               d="M 51.333347,51.333347 H 38.396387 L 43.362518,45.838049 21.895284,24.370816 16.399986,29.336947 V 16.399986 h 12.936961 l -4.965326,5.494493 21.467234,21.467233 5.494492,-4.965325 z"
               inkscape:transform-center-x="-0.059175608"
               inkscape:transform-center-y="-0.22144936"
               sodipodi:nodetypes="ccccccccccc" /></g></g><g
           inkscape:label="Layer 1"
           id="layer1-37"
           transform="matrix(0.32098753,0,0,0.32098753,185.32923,56.290081)"><g
             id="path1-88"
             inkscape:transform-center-x="-14.574798"
             inkscape:transform-center-y="19.90102" /><g
             id="path2-2"><path
               id="path4-4-9"
               style="stroke:#ffffff;stroke-width:3;stroke-linecap:round;stroke-linejoin:round;stroke-dasharray:none;paint-order:stroke markers fill"
               d="m 16.399986,51.333347 h 12.93696 l -4.966131,-5.495298 21.467234,-21.467233 5.495298,4.966131 V 16.399986 H 38.396386 l 4.965326,5.494493 -21.467234,21.467233 -5.494492,-4.965325 z"
               inkscape:transform-center-x="0.059175223"
               inkscape:transform-center-y="-0.22144936"
               sodipodi:nodetypes="ccccccccccc" /></g></g><g
           inkscape:label="Layer 1"
           id="layer1-54"
           transform="matrix(0.32098753,0,0,0.32098753,100.18323,56.528011)"><path
             id="path1-2"
             style="fill:#000000;stroke:#ffffff;stroke-width:2;stroke-linecap:round;stroke-linejoin:round;stroke-dasharray:none;paint-order:markers fill stroke"
             inkscape:transform-center-y="19.90102"
             d="M 40.628019,45.656256 21.996667,45.715651 8.1210626,58.149408 8.1104136,9.5838709 Z"
             sodipodi:nodetypes="ccccc"
             inkscape:transform-center-x="-14.574798" /><path
             style="fill:#000000;stroke:#ffffff;stroke-width:3;stroke-linecap:round;stroke-linejoin:round;stroke-dasharray:none;paint-order:stroke markers fill"
             d="m 55.400354,31.207694 c -5.237783,0 -9.127508,4.164665 -9.127508,9.181038 a 1.2446046,1.2160328 0 0 0 1.244526,1.215953 1.2446046,1.2160328 0 0 0 1.244523,-1.215953 c 0,-3.834813 2.712485,-6.74913 6.638459,-6.74913 2.190428,0 3.759296,0.631803 4.834497,1.728934 1.075201,1.09713 1.7187,2.745556 1.7187,5.020196 0,1.887675 -1.57754,3.60864 -3.380558,4.871125 -1.803018,1.262484 -3.62288,1.958387 -3.62288,1.958387 a 1.244729,1.2161544 0 0 0 -0.795778,1.134111 v 7.307417 a 1.2446046,1.2160328 0 0 0 1.246019,1.215954 1.2446046,1.2160328 0 0 0 1.244524,-1.215954 V 49.13571 c 0.74837,-0.325599 1.92381,-0.87949 3.379064,-1.898466 2.095934,-1.467588 4.418658,-3.727635 4.418658,-6.848512 0,-2.733912 -0.809466,-5.069421 -2.40977,-6.702363 -1.600303,-1.63294 -3.92911,-2.478675 -6.632476,-2.478675 z"
             id="path3-09" /><ellipse
             style="fill:#000000;stroke:#ffffff;stroke-width:3;stroke-linecap:round;stroke-linejoin:round;stroke-dasharray:none;paint-order:stroke markers fill"
             id="path2-73"
             cx="55.394966"
             cy="61.687607"
             rx="1.9526373"
             ry="1.9078115" /></g><g
           inkscape:label="Layer 1"
           id="layer1-1"
           transform="matrix(0.32098753,0,0,0.32098753,231.68797,56.290081)"><g
             id="path1-65"
             inkscape:transform-center-x="-14.574798"
             inkscape:transform-center-y="19.90102" /><g
             id="path2-75"><path
               id="path4-4-4"
               style="stroke:#ffffff;stroke-width:3;stroke-linecap:round;stroke-linejoin:round;stroke-dasharray:none;paint-order:stroke markers fill"
               d="m 7.4017483,33.866667 12.4078257,8.399457 v -7.02317 h 28.114187 v 7.02317 L 60.331585,33.866667 47.923761,25.467209 V 32.48924 H 19.809574 v -7.022031 z"
               inkscape:transform-center-x="-0.11474492"
               inkscape:transform-center-y="-0.19843246" /></g></g><g
           inkscape:label="Layer 1"
           id="layer1-35"
           transform="matrix(0.32098753,0,0,0.32098753,166.01041,56.290081)"><g
             id="path1-1"
             inkscape:transform-center-x="-14.574798"
             inkscape:transform-center-y="19.90102" /><g
             id="path2-20"><path
               id="path4-4-16"
               style="stroke:#ffffff;stroke-width:3;stroke-linecap:round;stroke-linejoin:round;stroke-dasharray:none;paint-order:stroke markers fill"
               inkscape:transform-center-x="0.19843222"
               inkscape:transform-center-y="-0.11474511"
               d="M 33.866667,7.4016154 25.467179,19.809644 H 32.48949 V 32.48949 H 19.809644 V 25.467179 L 7.4016154,33.866667 19.809644,42.266154 V 35.24281 H 32.48949 V 47.92369 H 25.467179 L 33.866667,60.331718 42.266154,47.92369 H 35.24281 V 35.24281 h 12.68088 v 7.023344 L 60.331718,33.866667 47.92369,25.467179 V 32.48949 H 35.24281 V 19.809644 h 7.023344 z" /></g></g><g
           id="g1"
           transform="matrix(0.32098753,0,0,0.32098753,291.29176,6.8659034)"><circle
             style="opacity:0.5;fill:none;stroke:#333333;stroke-width:8;stroke-linecap:round;stroke-linejoin:round;stroke-dasharray:none;paint-order:stroke markers fill"
             id="path3-0-4"
             cx="-422.39566"
             cy="186.8553"
             r="20.743696" /><path
             style="fill:none;stroke:#55ddff;stroke-width:8;stroke-linecap:round;stroke-linejoin:round;stroke-dasharray:none;paint-order:stroke markers fill"
             id="path3-0-3-6"
             sodipodi:type="arc"
             sodipodi:cx="-422.39566"
             sodipodi:cy="186.8553"
             sodipodi:rx="20.743696"
             sodipodi:ry="20.743696"
             sodipodi:start="4.9741884"
             sodipodi:end="6.0213859"
             sodipodi:arc-type="arc"
             d="m -417.0268,166.81843 a 20.743696,20.743696 0 0 1 14.66801,14.66801"
             sodipodi:open="true" /></g></g><text
         xml:space="preserve"
         style="font-style:normal;font-variant:normal;font-weight:600;font-stretch:normal;font-size:16.9966px;line-height:0.5;font-family:Figtree;-inkscape-font-specification:'Figtree Semi-Bold';text-align:center;letter-spacing:0px;writing-mode:lr-tb;direction:ltr;text-anchor:middle;fill:#000000;fill-opacity:0.5;stroke-width:4.37994;stroke-linejoin:round;paint-order:stroke fill markers"
         x="169.01041"
         y="30.287552"
         id="text1"><tspan
           sodipodi:role="line"
           id="tspan1"
           style="font-style:normal;font-variant:normal;font-weight:600;font-stretch:normal;line-height:0.5;font-family:Figtree;-inkscape-font-specification:'Figtree Semi-Bold';text-align:center;text-anchor:middle;fill:#ffffff;fill-opacity:1;stroke-width:4.37994"
           x="169.01041"
           y="30.287552">mdernize</tspan><tspan
           sodipodi:role="line"
           style="font-style:normal;font-variant:normal;font-weight:300;font-stretch:normal;font-size:6.35px;line-height:0.5;font-family:Figtree;-inkscape-font-specification:'Figtree Light';text-align:center;text-anchor:middle;fill:#ffffff;fill-opacity:1;stroke-width:4.37994"
           x="169.01041"
           y="38.785851"
           id="tspan2">minimalist cursor theme</tspan></text><g
         id="g10"
         transform="matrix(1.3807318,0,0,1.3807318,-76.593244,-60.979642)"><path
           fill="#0078d4"
           d="m 171.62482,130.06055 h -2.17257 v 2.17163 h 2.17257 z m -2.41041,0 h -2.17257 v 2.17163 h 2.17257 z m 2.41041,2.41041 h -2.17257 v 2.17258 h 2.17257 z m -2.41041,0 h -2.17257 v 2.17258 h 2.17257"
           id="path1-68"
           style="fill:#ffffff;stroke-width:0.000940101" /><text
           xml:space="preserve"
           style="font-style:normal;font-variant:normal;font-weight:300;font-stretch:normal;font-size:3.88056px;line-height:0.5;font-family:Figtree;-inkscape-font-specification:'Figtree Light';text-align:start;letter-spacing:0px;writing-mode:lr-tb;direction:ltr;text-anchor:start;fill:#ffffff;fill-opacity:1;stroke-width:2;stroke-linejoin:round;paint-order:stroke fill markers"
           x="173.42949"
           y="133.70636"
           id="text9"><tspan
             sodipodi:role="line"
             id="tspan9"
             style="font-size:3.88056px;text-align:start;text-anchor:start;stroke-width:2"
             x="173.42949"
             y="133.70636">Windows</tspan></text></g><text
         xml:space="preserve"
         style="font-style:normal;font-variant:normal;font-weight:300;font-stretch:normal;font-size:3.88056px;line-height:0.5;font-family:Figtree;-inkscape-font-specification:'Figtree Light';text-align:start;letter-spacing:0px;writing-mode:lr-tb;direction:ltr;text-anchor:start;fill:#666666;fill-opacity:1;stroke-width:2;stroke-linejoin:round;paint-order:stroke fill markers"
         x="156.67107"
         y="116.71069"
         id="text10"><tspan
           sodipodi:role="line"
           id="tspan10"
           style="fill:#666666;stroke-width:2"
           x="156.67107"
           y="116.71069">Compatible on</tspan></text></g><rect
       style="fill:#000000;fill-opacity:0.5;stroke-width:1.12783;stroke-linejoin:round;paint-order:stroke fill markers"
       id="rect14"
       width="13.714274"
       height="13.714274"
       x="315.05347"
       y="119.39697" /><text
       xml:space="preserve"
       style="font-style:normal;font-variant:normal;font-weight:normal;font-stretch:normal;font-size:3.58085px;line-height:1;font-family:Archivo;-inkscape-font-specification:Archivo;text-align:start;letter-spacing:0px;writing-mode:lr-tb;direction:ltr;text-anchor:start;fill:#000000;fill-opacity:1;stroke-width:1.12783;stroke-linejoin:round;paint-order:stroke fill markers"
       x="326.68567"
       y="123.94624"
       id="text12"><tspan
         sodipodi:role="line"
         id="tspan12"
         style="line-height:1;text-align:end;text-anchor:end;fill:#ffffff;stroke-width:1.12783"
         x="326.68567"
         y="123.94624">eighty</tspan><tspan
         sodipodi:role="line"
         style="font-style:normal;font-variant:normal;font-weight:500;font-stretch:normal;line-height:1;font-family:Archivo;-inkscape-font-specification:'Archivo Medium';text-align:end;text-anchor:end;fill:#ffffff;stroke-width:1.12783"
         x="326.68567"
         y="127.52709"
         id="tspan13">five</tspan><tspan
         sodipodi:role="line"
         style="font-style:normal;font-variant:normal;font-weight:bold;font-stretch:normal;line-height:1;font-family:Archivo;-inkscape-font-specification:'Archivo Bold';text-align:end;text-anchor:end;fill:#ffffff;stroke-width:1.12783"
         x="326.68567"
         y="131.10794"
         id="tspan14">nine</tspan></text><g
       id="g15"
       transform="translate(-2.3375533,-2.0043734)"><path
         d="m 15.039245,127.80006 q 0.502694,-0.13999 1.018111,-0.13999 0.515417,0 1.011759,0.13999 0.502693,0.13999 0.916296,0.38815 0.419971,0.24817 0.769956,0.59815 0.349974,0.34997 0.598145,0.76995 0.248161,0.41361 0.381789,0.90994 0.139961,0.49633 0.139961,1.01175 0,0.62359 -0.197262,1.20901 -0.190904,0.57906 -0.534512,1.04993 -0.343613,0.46451 -0.827212,0.82086 -0.477241,0.35633 -1.043567,0.54723 -0.133664,0.0318 -0.197267,-0.0318 -0.0636,-0.0636 -0.0636,-0.15272 0,-0.0191 0,-0.38179 0.0058,-0.36271 0.0058,-0.66814 0,-0.4836 -0.260885,-0.69995 0.197261,-0.0255 0.362694,-0.0573 0.171819,-0.0382 0.349984,-0.10182 0.184528,-0.07 0.330895,-0.16544 0.146407,-0.0954 0.279975,-0.23544 0.133658,-0.14635 0.222704,-0.33088 0.0891,-0.18453 0.13996,-0.43907 0.0573,-0.25452 0.0573,-0.55996 0,-0.59814 -0.394508,-1.02448 0.02552,-0.0573 0.04454,-0.12726 0.01903,-0.0764 0.03181,-0.20999 0.01903,-0.13999 -0.01318,-0.31179 -0.02551,-0.17817 -0.101858,-0.36271 -0.01318,-0.006 -0.0381,-0.006 -0.02551,-0.006 -0.120905,0.006 -0.09541,0.006 -0.203623,0.0382 -0.108157,0.0318 -0.29907,0.1209 -0.184543,0.0891 -0.381794,0.23545 -0.458156,-0.13363 -0.96085,-0.13363 -0.496322,0 -0.948121,0.13363 -0.203623,-0.14 -0.394522,-0.22908 -0.184528,-0.0954 -0.299061,-0.12727 -0.114607,-0.0318 -0.203623,-0.0382 -0.08266,-0.0127 -0.12091,-0.006 l -0.0318,0.006 q -0.07636,0.18454 -0.108156,0.36271 -0.02551,0.1718 -0.01318,0.31179 0.01903,0.13363 0.03825,0.20999 0.01903,0.07 0.04454,0.12726 -0.394523,0.42634 -0.394523,1.02448 0,0.30544 0.05085,0.55997 0.0573,0.25453 0.13996,0.43906 0.08911,0.18453 0.222718,0.33088 0.139961,0.14 0.27998,0.23544 0.146407,0.0954 0.330885,0.16545 0.184533,0.0636 0.349975,0.10181 0.165447,0.0318 0.362704,0.0573 -0.1909,0.1718 -0.2418,0.50906 -0.08265,0.0382 -0.171813,0.0636 -0.08266,0.0255 -0.216347,0.0318 -0.127212,0.006 -0.248161,-0.0191 -0.120909,-0.0318 -0.254538,-0.12727 -0.127207,-0.10181 -0.222703,-0.26726 -0.03825,-0.0573 -0.0891,-0.11453 -0.04454,-0.0573 -0.120905,-0.12089 -0.07005,-0.07 -0.171809,-0.11453 -0.101854,-0.0446 -0.203618,-0.0446 -0.114459,0.006 -0.159071,0.0382 -0.03825,0.0255 -0.01318,0.07 0.02551,0.0382 0.07005,0.0763 0.04454,0.0382 0.108161,0.07 0.108156,0.0573 0.222713,0.2418 0.12091,0.18453 0.165447,0.29907 0.02552,0.0636 0.0573,0.12091 0.03181,0.0573 0.0891,0.13363 0.0636,0.07 0.159085,0.1209 0.101859,0.0509 0.229081,0.0891 0.133658,0.0318 0.324517,0.0318 0.197262,0 0.419981,-0.0509 0,0.1909 0.0058,0.44543 0.0058,0.24816 0.0058,0.26725 0,0.0891 -0.07005,0.15272 -0.0636,0.0573 -0.197262,0.0318 -0.559955,-0.1909 -1.043568,-0.54088 -0.483598,-0.35633 -0.827211,-0.82085 -0.343608,-0.47087 -0.540875,-1.05629 -0.197261,-0.58542 -0.197261,-1.20901 0,-0.51542 0.133658,-1.01175 0.13996,-0.49634 0.388166,-0.90994 0.248156,-0.41998 0.59813,-0.76995 0.349985,-0.34998 0.763594,-0.59815 0.419964,-0.24816 0.916301,-0.38815 z"
         id="text5"
         style="font-weight:300;font-size:8.46667px;line-height:0.9;font-family:Figtree;-inkscape-font-specification:'Figtree Light';letter-spacing:0px;fill:#333333;stroke-width:1.46555;stroke-linecap:square;stroke-linejoin:round;paint-order:markers fill stroke"
         aria-label="ïˆ" /><text
         xml:space="preserve"
         style="font-style:normal;font-variant:normal;font-weight:300;font-stretch:normal;font-size:4.23333px;line-height:0.9;font-family:Figtree;-inkscape-font-specification:'Figtree Light';text-align:start;letter-spacing:0px;writing-mode:lr-tb;direction:ltr;text-anchor:start;fill:#333333;fill-opacity:1;stroke:none;stroke-width:1;stroke-linecap:square;stroke-linejoin:round;stroke-dasharray:none;paint-order:markers fill stroke"
         x="21.471346"
         y="132.86952"
         id="text6"><tspan
           sodipodi:role="line"
           id="tspan5"
           style="font-size:4.23333px;fill:#333333;stroke-width:1"
           x="21.471346"
           y="132.86952">user8595/mdernize</tspan></text></g></g><metadata
     id="metadata1"><rdf:RDF><cc:Work
         rdf:about=""><cc:license
           rdf:resource="https://opensource.org/license/mit" /></cc:Work></rdf:RDF></metadata></svg>
