<?xml version="1.0" encoding="UTF-8" standalone="no"?>
<!-- Created with Inkscape (http://www.inkscape.org/) -->

<svg
   width="256"
   height="256"
   viewBox="0 0 67.733332 67.733332"
   version="1.1"
   id="svg1"
   inkscape:version="1.4 (86a8ad7, 2024-10-11)"
   sodipodi:docname="help.svg"
   inkscape:export-filename="..\..\png\dark\help.png"
   inkscape:export-xdpi="96"
   inkscape:export-ydpi="96"
   xmlns:inkscape="http://www.inkscape.org/namespaces/inkscape"
   xmlns:sodipodi="http://sodipodi.sourceforge.net/DTD/sodipodi-0.dtd"
   xmlns="http://www.w3.org/2000/svg"
   xmlns:svg="http://www.w3.org/2000/svg"
   xmlns:rdf="http://www.w3.org/1999/02/22-rdf-syntax-ns#"
   xmlns:cc="http://creativecommons.org/ns#">
  <sodipodi:namedview
     id="namedview1"
     pagecolor="#505050"
     bordercolor="#eeeeee"
     borderopacity="1"
     inkscape:showpageshadow="0"
     inkscape:pageopacity="0"
     inkscape:pagecheckerboard="0"
     inkscape:deskcolor="#505050"
     inkscape:document-units="mm"
     showguides="true"
     inkscape:zoom="0.70710678"
     inkscape:cx="190.21172"
     inkscape:cy="102.53048"
     inkscape:window-width="1366"
     inkscape:window-height="697"
     inkscape:window-x="-8"
     inkscape:window-y="-8"
     inkscape:window-maximized="1"
     inkscape:current-layer="layer1" />
  <defs
     id="defs1" />
  <g
     inkscape:label="Layer 1"
     inkscape:groupmode="layer"
     id="layer1">
    <path
       id="path1"
       style="fill:#000000;stroke:#ffffff;stroke-width:2;stroke-linecap:round;stroke-linejoin:round;stroke-dasharray:none;paint-order:markers fill stroke"
       inkscape:transform-center-y="19.90102"
       d="M 40.628019,45.656256 21.996667,45.715651 8.1210626,58.149408 8.1104136,9.5838709 Z"
       sodipodi:nodetypes="ccccc"
       inkscape:transform-center-x="-14.574798" />
    <path
       style="fill:#000000;stroke:#ffffff;stroke-width:3;stroke-linecap:round;stroke-linejoin:round;stroke-dasharray:none;paint-order:stroke markers fill"
       d="m 52.898095,39.534261 c -3.801872,0 -6.625248,3.09397 -6.625248,6.820682 a 0.90340253,0.90340253 0 0 0 0.903345,0.903344 0.90340253,0.90340253 0 0 0 0.903344,-0.903344 c 0,-2.84892 1.968871,-5.013994 4.818559,-5.013994 1.589933,0 2.728704,0.469373 3.509144,1.284442 0.78044,0.815069 1.247527,2.0397 1.247527,3.729552 0,1.402372 -1.145065,2.680894 -2.453795,3.618806 -1.30873,0.937912 -2.629686,1.454905 -2.629686,1.454905 a 0.90349287,0.90349287 0 0 0 -0.57762,0.842542 v 5.428751 a 0.90340253,0.90340253 0 0 0 0.90443,0.903344 0.90340253,0.90340253 0 0 0 0.903344,-0.903344 v -4.846789 c 0.543208,-0.241891 1.396407,-0.653382 2.45271,-1.410389 1.521345,-1.090285 3.207306,-2.769296 3.207306,-5.087826 0,-2.031049 -0.587555,-3.766122 -1.749144,-4.97925 -1.161588,-1.213127 -2.851964,-1.841432 -4.814216,-1.841432 z"
       id="path3" />
    <circle
       style="fill:#000000;stroke:#ffffff;stroke-width:3;stroke-linecap:round;stroke-linejoin:round;stroke-dasharray:none;paint-order:stroke markers fill"
       id="path2"
       cx="52.894184"
       cy="62.178082"
       r="1.4173317" />
  </g>
  <metadata
     id="metadata1">
    <rdf:RDF>
      <cc:Work
         rdf:about="">
        <cc:license
           rdf:resource="https://opensource.org/license/mit" />
      </cc:Work>
    </rdf:RDF>
  </metadata>
</svg>
