<?xml version="1.0" encoding="UTF-8" standalone="no"?>
<!-- Created with Inkscape (http://www.inkscape.org/) -->

<svg
   width="256"
   height="256"
   viewBox="0 0 67.733332 67.733332"
   version="1.1"
   id="svg1"
   inkscape:version="1.4 (86a8ad7, 2024-10-11)"
   sodipodi:docname="link-select.svg"
   inkscape:export-filename="..\..\png\dark\link-select.png"
   inkscape:export-xdpi="96"
   inkscape:export-ydpi="96"
   xmlns:inkscape="http://www.inkscape.org/namespaces/inkscape"
   xmlns:sodipodi="http://sodipodi.sourceforge.net/DTD/sodipodi-0.dtd"
   xmlns="http://www.w3.org/2000/svg"
   xmlns:svg="http://www.w3.org/2000/svg"
   xmlns:rdf="http://www.w3.org/1999/02/22-rdf-syntax-ns#"
   xmlns:cc="http://creativecommons.org/ns#">
  <sodipodi:namedview
     id="namedview1"
     pagecolor="#505050"
     bordercolor="#eeeeee"
     borderopacity="1"
     inkscape:showpageshadow="0"
     inkscape:pageopacity="0"
     inkscape:pagecheckerboard="0"
     inkscape:deskcolor="#505050"
     inkscape:document-units="mm"
     showguides="true"
     inkscape:zoom="0.6666836"
     inkscape:cx="221.24438"
     inkscape:cy="-23.249409"
     inkscape:window-width="1366"
     inkscape:window-height="697"
     inkscape:window-x="-8"
     inkscape:window-y="-8"
     inkscape:window-maximized="1"
     inkscape:current-layer="path2" />
  <defs
     id="defs1" />
  <g
     inkscape:label="Layer 1"
     inkscape:groupmode="layer"
     id="layer1">
    <g
       id="path1"
       inkscape:transform-center-x="-14.574798"
       inkscape:transform-center-y="19.90102" />
    <g
       id="path2">
      <path
         style="fill:#000000;stroke:#ffffff;stroke-width:2.99999;stroke-linecap:round;stroke-linejoin:round;paint-order:stroke markers fill"
         d="m 19.457759,17.399364 c 0,7.535488 1.140975,22.149739 -0.990578,22.149739 -2.131553,0 -3.269917,-2.110348 -4.611182,-3.97404 -2.816992,-3.91422 -4.976823,-1.576957 -4.282306,2.529157 0.773161,4.571069 5.820585,19.596411 18.163,19.596411 12.220398,0 16.207758,-18.727685 16.207758,-18.727685 0,0 0.715135,-2.060751 -1.746891,-3.567678 -0.375675,-0.229938 -1.92215,0.104904 -2.488246,-0.09731 -0.697422,-0.249136 -1.565198,-1.407179 -3.236139,-1.653966 -0.725183,-0.107102 -2.114137,0.240452 -2.590067,0.219726 -1.5699,-0.06836 -2.308943,-1.166286 -3.572937,-1.205348 -1.30098,-0.0402 -5.408381,0.634047 -5.636874,-0.288841 -0.278831,-1.126206 -0.136248,-6.144322 -0.304829,-15.046094 -0.05647,-2.982052 -1.50372,-4.045601 -2.408978,-4.045601 -0.952422,0 -2.501731,1.074365 -2.501731,4.11153 z"
         id="path3-4"
         sodipodi:nodetypes="szssscsssssssss" />
    </g>
  </g>
  <metadata
     id="metadata1">
    <rdf:RDF>
      <cc:Work
         rdf:about="">
        <cc:license
           rdf:resource="https://opensource.org/license/mit" />
      </cc:Work>
    </rdf:RDF>
  </metadata>
</svg>
