<?xml version="1.0" encoding="UTF-8" standalone="no"?>
<!-- Created with Inkscape (http://www.inkscape.org/) -->

<svg
   width="256"
   height="256"
   viewBox="0 0 67.733332 67.733332"
   version="1.1"
   id="svg1"
   inkscape:version="1.4 (86a8ad7, 2024-10-11)"
   sodipodi:docname="location-select.svg"
   xml:space="preserve"
   inkscape:export-filename="..\..\png\dark\location-select.png"
   inkscape:export-xdpi="96"
   inkscape:export-ydpi="96"
   xmlns:inkscape="http://www.inkscape.org/namespaces/inkscape"
   xmlns:sodipodi="http://sodipodi.sourceforge.net/DTD/sodipodi-0.dtd"
   xmlns="http://www.w3.org/2000/svg"
   xmlns:svg="http://www.w3.org/2000/svg"
   xmlns:rdf="http://www.w3.org/1999/02/22-rdf-syntax-ns#"
   xmlns:cc="http://creativecommons.org/ns#"><sodipodi:namedview
     id="namedview1"
     pagecolor="#505050"
     bordercolor="#eeeeee"
     borderopacity="1"
     inkscape:showpageshadow="0"
     inkscape:pageopacity="0"
     inkscape:pagecheckerboard="0"
     inkscape:deskcolor="#505050"
     inkscape:document-units="mm"
     showguides="true"
     inkscape:zoom="0.85346028"
     inkscape:cx="182.19946"
     inkscape:cy="131.81633"
     inkscape:window-width="1366"
     inkscape:window-height="697"
     inkscape:window-x="-8"
     inkscape:window-y="-8"
     inkscape:window-maximized="1"
     inkscape:current-layer="path2" /><defs
     id="defs1" /><g
     inkscape:label="Layer 1"
     inkscape:groupmode="layer"
     id="layer1"><g
       id="path1"
       inkscape:transform-center-x="-14.574798"
       inkscape:transform-center-y="19.90102" /><g
       id="path2"><path
         style="fill:#000000;stroke:#ffffff;stroke-width:2.99999;stroke-linecap:round;stroke-linejoin:round;paint-order:stroke markers fill"
         d="m 19.457759,17.399364 c 0,7.535488 1.140975,22.149739 -0.990578,22.149739 -2.131553,0 -3.269917,-2.110348 -4.611182,-3.97404 -2.816992,-3.91422 -4.976823,-1.576957 -4.282306,2.529157 0.773161,4.571069 5.820585,19.596411 18.163,19.596411 12.220398,0 16.207758,-18.727685 16.207758,-18.727685 0,0 0.715135,-2.060751 -1.746891,-3.567678 -0.375675,-0.229938 -1.92215,0.104904 -2.488246,-0.09731 -0.697422,-0.249136 -1.565198,-1.407179 -3.236139,-1.653966 -0.725183,-0.107102 -2.114137,0.240452 -2.590067,0.219726 -1.5699,-0.06836 -2.308943,-1.166286 -3.572937,-1.205348 -1.30098,-0.0402 -5.408381,0.634047 -5.636874,-0.288841 -0.278831,-1.126206 -0.136248,-6.144322 -0.304829,-15.046094 -0.05647,-2.982052 -1.50372,-4.045601 -2.408978,-4.045601 -0.952422,0 -2.501731,1.074365 -2.501731,4.11153 z"
         id="path3-4"
         sodipodi:nodetypes="szssscsssssssss" /><path
         id="path9"
         style="fill:#000000;stroke:#ffffff;stroke-width:3;stroke-linecap:round;stroke-linejoin:round;paint-order:stroke markers fill"
         d="m 52.867365,41.302934 a 6.9981108,7.0694831 0 0 0 -6.998289,7.069664 6.9981108,7.0694831 0 0 0 0.08392,0.968481 6.9981108,7.0694831 0 0 0 0.282695,1.239503 6.9981108,7.0694831 0 0 0 0.655665,1.448442 6.9981108,7.0694831 0 0 0 0.575986,0.820341 c -0.208863,-0.25776 -0.402611,-0.530549 -0.575986,-0.820341 l 5.97601,9.797854 5.97601,-9.798282 c -0.173455,0.289972 -0.367425,0.562864 -0.57641,0.820769 a 6.9981108,7.0694831 0 0 0 0.57641,-0.820769 6.9981108,7.0694831 0 0 0 0.656513,-1.450155 6.9981108,7.0694831 0 0 0 0.281847,-1.237362 6.9981108,7.0694831 0 0 0 0.08349,-0.968481 6.9981108,7.0694831 0 0 0 -6.997865,-7.069664 z m 0,4.197613 a 2.8428346,2.8718281 0 0 1 2.842631,2.872051 2.8428346,2.8718281 0 0 1 -0.03391,0.393472 2.8428346,2.8718281 0 0 1 -0.114434,0.502651 2.8428346,2.8718281 0 0 1 -0.266589,0.588711 2.8428346,2.8718281 0 0 1 -2.427701,1.386788 2.8428346,2.8718281 0 0 1 -2.427701,-1.38636 2.8428346,2.8718281 0 0 1 -0.26659,-0.588282 2.8428346,2.8718281 0 0 1 -0.114434,-0.503508 2.8428346,2.8718281 0 0 1 -0.03433,-0.393472 2.8428346,2.8718281 0 0 1 2.843056,-2.872051 z m 5.353826,7.403193 c -0.200415,0.242286 -0.415419,0.469157 -0.643798,0.680336 a 6.9981108,7.0694831 0 0 0 0.643798,-0.680336 z m -10.706381,0.0017 a 6.9981108,7.0694831 0 0 0 0.64168,0.677767 C 47.929013,53.37279 47.714538,53.146729 47.51481,52.90544 Z m 9.992651,0.742847 c -0.234657,0.211165 -0.48233,0.406002 -0.741704,0.582716 a 6.9981108,7.0694831 0 0 0 0.741704,-0.582716 z m -9.278497,0.0012 a 6.9981108,7.0694831 0 0 0 0.742975,0.583573 c -0.26,-0.176926 -0.50778,-0.372046 -0.742975,-0.583573 z m 0.788325,0.615256 a 6.9981108,7.0694831 0 0 0 0.856985,0.489808 C 49.577482,54.611937 49.291338,54.44816 49.017289,54.264825 Z m 7.698881,0.0013 c -0.273592,0.182946 -0.559463,0.346069 -0.855714,0.488522 a 6.9981108,7.0694831 0 0 0 0.855714,-0.488522 z m -6.790188,0.511642 a 6.9981108,7.0694831 0 0 0 0.876057,0.341666 c -0.300007,-0.09435 -0.592537,-0.208177 -0.876057,-0.341666 z m 5.88319,0 c -0.285244,0.134338 -0.579643,0.248668 -0.881567,0.343379 a 6.9981108,7.0694831 0 0 0 0.881567,-0.343379 z m -0.966757,0.369068 c -0.295603,0.08858 -0.597809,0.157691 -0.905302,0.20637 a 6.9981108,7.0694831 0 0 0 0.905302,-0.20637 z m -3.94459,0.0017 a 6.9981108,7.0694831 0 0 0 0.903182,0.205514 c -0.306744,-0.04844 -0.608247,-0.11747 -0.903182,-0.205568 z m 0.978624,0.21793 a 6.9981108,7.0694831 0 0 0 0.990916,0.07535 6.9981108,7.0694831 0 0 0 0.989644,-0.07492 c -0.325314,0.04759 -0.655521,0.07428 -0.989644,0.07492 -0.334565,-6.34e-4 -0.665183,-0.02766 -0.990916,-0.07535 z" /></g></g><metadata
     id="metadata1"><rdf:RDF><cc:Work
         rdf:about=""><cc:license
           rdf:resource="https://opensource.org/license/mit" /></cc:Work></rdf:RDF></metadata></svg>
