<?xml version="1.0" encoding="UTF-8" standalone="no"?>
<!-- Created with Inkscape (http://www.inkscape.org/) -->

<svg
   width="256"
   height="256"
   viewBox="0 0 67.733332 67.733333"
   version="1.1"
   id="svg1"
   inkscape:version="1.4 (86a8ad7, 2024-10-11)"
   sodipodi:docname="precise.svg"
   inkscape:export-filename="..\..\png\dark\precision.png"
   inkscape:export-xdpi="96"
   inkscape:export-ydpi="96"
   xmlns:inkscape="http://www.inkscape.org/namespaces/inkscape"
   xmlns:sodipodi="http://sodipodi.sourceforge.net/DTD/sodipodi-0.dtd"
   xmlns="http://www.w3.org/2000/svg"
   xmlns:svg="http://www.w3.org/2000/svg"
   xmlns:rdf="http://www.w3.org/1999/02/22-rdf-syntax-ns#"
   xmlns:cc="http://creativecommons.org/ns#">
  <sodipodi:namedview
     id="namedview1"
     pagecolor="#505050"
     bordercolor="#eeeeee"
     borderopacity="1"
     inkscape:showpageshadow="0"
     inkscape:pageopacity="0"
     inkscape:pagecheckerboard="0"
     inkscape:deskcolor="#505050"
     inkscape:document-units="mm"
     inkscape:zoom="2.2828597"
     inkscape:cx="127.25267"
     inkscape:cy="119.80587"
     inkscape:window-width="1366"
     inkscape:window-height="697"
     inkscape:window-x="-8"
     inkscape:window-y="-8"
     inkscape:window-maximized="1"
     inkscape:current-layer="layer1" />
  <defs
     id="defs1" />
  <g
     inkscape:label="Layer 1"
     inkscape:groupmode="layer"
     id="layer1">
    <path
       style="stroke-linecap:round;stroke-linejoin:round;paint-order:markers fill stroke"
       d="M 33.866667,10.345973 V 57.387361"
       id="path2" />
    <path
       id="path3"
       style="stroke:#ffffff;stroke-width:1.5;stroke-linecap:round;stroke-linejoin:round;stroke-dasharray:none;paint-order:stroke markers fill"
       d="M 33.867797,7.1532572 A 0.95814057,0.95814057 0 0 0 32.909786,8.1112691 V 32.909786 H 8.1112691 a 0.95814057,0.95814057 0 0 0 -0.9580119,0.958011 0.95814057,0.95814057 0 0 0 0.9580119,0.958011 H 32.909786 v 24.796255 a 0.95814057,0.95814057 0 0 0 0.958011,0.958011 0.95814057,0.95814057 0 0 0 0.958011,-0.958011 V 34.825808 h 24.796255 a 0.95814057,0.95814057 0 0 0 0.958011,-0.958011 0.95814057,0.95814057 0 0 0 -0.958011,-0.958011 H 34.825808 V 8.1112691 A 0.95814057,0.95814057 0 0 0 33.867797,7.1532572 Z" />
  </g>
  <metadata
     id="metadata1">
    <rdf:RDF>
      <cc:Work
         rdf:about="">
        <cc:license
           rdf:resource="https://opensource.org/license/mit" />
      </cc:Work>
    </rdf:RDF>
  </metadata>
</svg>
