<?xml version="1.0" encoding="UTF-8" standalone="no"?>
<!-- Created with Inkscape (http://www.inkscape.org/) -->

<svg
   width="256"
   height="256"
   viewBox="0 0 67.733332 67.733332"
   version="1.1"
   id="svg1"
   inkscape:version="1.4 (86a8ad7, 2024-10-11)"
   sodipodi:docname="text-input.svg"
   inkscape:export-filename="..\png\input.png"
   inkscape:export-xdpi="96"
   inkscape:export-ydpi="96"
   xmlns:inkscape="http://www.inkscape.org/namespaces/inkscape"
   xmlns:sodipodi="http://sodipodi.sourceforge.net/DTD/sodipodi-0.dtd"
   xmlns="http://www.w3.org/2000/svg"
   xmlns:svg="http://www.w3.org/2000/svg"
   xmlns:rdf="http://www.w3.org/1999/02/22-rdf-syntax-ns#"
   xmlns:cc="http://creativecommons.org/ns#">
  <sodipodi:namedview
     id="namedview1"
     pagecolor="#505050"
     bordercolor="#eeeeee"
     borderopacity="1"
     inkscape:showpageshadow="0"
     inkscape:pageopacity="0"
     inkscape:pagecheckerboard="0"
     inkscape:deskcolor="#505050"
     inkscape:document-units="mm"
     showguides="true"
     inkscape:zoom="1.3333672"
     inkscape:cx="49.123752"
     inkscape:cy="118.122"
     inkscape:window-width="1366"
     inkscape:window-height="697"
     inkscape:window-x="-8"
     inkscape:window-y="-8"
     inkscape:window-maximized="1"
     inkscape:current-layer="layer1" />
  <defs
     id="defs1" />
  <g
     inkscape:label="Layer 1"
     inkscape:groupmode="layer"
     id="layer1">
    <path
       id="path3"
       style="stroke-linecap:round;stroke-linejoin:round;paint-order:stroke markers fill;stroke:#ffffff;fill:#000000;stroke-width:1.5;stroke-dasharray:none"
       d="M 30.086019 9.2986572 A 0.75 0.75 0 0 0 29.336194 10.048999 A 0.75 0.75 0 0 0 30.086019 10.798824 L 33.117358 10.798824 L 33.117358 56.933476 L 30.086019 56.933476 A 0.75 0.75 0 0 0 29.336194 57.683818 A 0.75 0.75 0 0 0 30.086019 58.433643 L 33.867183 58.433643 L 37.648348 58.433643 A 0.75 0.75 0 0 0 38.39869 57.683818 A 0.75 0.75 0 0 0 37.648348 56.933476 L 34.617008 56.933476 L 34.617008 10.798824 L 37.648348 10.798824 A 0.75 0.75 0 0 0 38.39869 10.048999 A 0.75 0.75 0 0 0 37.648348 9.2986572 L 30.086019 9.2986572 z " />
  </g>
  <metadata
     id="metadata4">
    <rdf:RDF>
      <cc:Work
         rdf:about="">
        <cc:license
           rdf:resource="https://opensource.org/license/mit" />
      </cc:Work>
    </rdf:RDF>
  </metadata>
</svg>
