<?xml version="1.0" encoding="UTF-8" standalone="no"?>
<!-- Created with Inkscape (http://www.inkscape.org/) -->

<svg
   width="256"
   height="256"
   viewBox="0 0 67.733332 67.733332"
   version="1.1"
   id="svg1"
   inkscape:version="1.4 (86a8ad7, 2024-10-11)"
   sodipodi:docname="location-select.svg"
   inkscape:export-filename="..\..\png\light\location-select.png"
   inkscape:export-xdpi="96"
   inkscape:export-ydpi="96"
   xmlns:inkscape="http://www.inkscape.org/namespaces/inkscape"
   xmlns:sodipodi="http://sodipodi.sourceforge.net/DTD/sodipodi-0.dtd"
   xmlns="http://www.w3.org/2000/svg"
   xmlns:svg="http://www.w3.org/2000/svg"
   xmlns:rdf="http://www.w3.org/1999/02/22-rdf-syntax-ns#"
   xmlns:cc="http://creativecommons.org/ns#">
  <sodipodi:namedview
     id="namedview1"
     pagecolor="#505050"
     bordercolor="#eeeeee"
     borderopacity="1"
     inkscape:showpageshadow="0"
     inkscape:pageopacity="0"
     inkscape:pagecheckerboard="0"
     inkscape:deskcolor="#505050"
     inkscape:document-units="mm"
     showguides="true"
     inkscape:zoom="1.3333672"
     inkscape:cx="118.49699"
     inkscape:cy="125.62181"
     inkscape:window-width="1366"
     inkscape:window-height="697"
     inkscape:window-x="-8"
     inkscape:window-y="-8"
     inkscape:window-maximized="1"
     inkscape:current-layer="layer1" />
  <defs
     id="defs1" />
  <g
     inkscape:label="Layer 1"
     inkscape:groupmode="layer"
     id="layer1">
    <g
       id="path1"
       inkscape:transform-center-x="-14.574798"
       inkscape:transform-center-y="19.90102"
       style="fill:#ffffff;stroke:#000000" />
    <path
       id="path4"
       style="fill:#ffffff;stroke:#000000;stroke-width:4;stroke-linecap:square;stroke-linejoin:round;stroke-dasharray:none;paint-order:stroke markers fill"
       d="m 54.033625,44.909063 c -3.64277,2.29e-4 -6.59567,2.935994 -6.595577,6.557304 0.0037,1.318746 0.352655,2.084747 1.158169,3.692926 l 5.437408,9.599394 5.391105,-9.518404 c 0.720059,-1.782752 1.204156,-2.422555 1.205057,-3.773916 9.3e-5,-3.621537 -2.953164,-6.557396 -6.596162,-6.557304 z m 0,3.876466 c 1.489532,-1.86e-4 2.697174,1.200081 2.697311,2.680838 1.87e-4,1.480985 -1.20755,2.681607 -2.697311,2.681421 -1.489533,-1.35e-4 -2.696913,-1.200663 -2.696726,-2.681421 1.37e-4,-1.48053 1.207422,-2.680703 2.696726,-2.680838 z"
       sodipodi:nodetypes="cccccccccccc" />
    <path
       style="fill:#ffffff;stroke:#000000;stroke-width:2;stroke-linecap:round;stroke-linejoin:round;stroke-dasharray:none;paint-order:markers fill stroke"
       d="m 19.457259,14.444768 c -0.03823,23.038413 0.375051,24.281649 -1.519245,23.128904 -1.894296,-1.152744 -2.74075,-2.46113 -4.082015,-4.324822 -2.816992,-3.91422 -4.976823,-1.576957 -4.282306,2.529157 0.773161,4.571069 5.820585,19.596411 18.163,19.596411 12.220398,0 16.207758,-18.727685 16.207758,-18.727685 0,0 0.715135,-2.060751 -1.746891,-3.567678 -0.375675,-0.229938 -1.92215,0.104904 -2.488246,-0.09731 -0.697422,-0.249136 -1.565198,-1.407179 -3.236139,-1.653966 -0.725183,-0.107102 -2.114137,0.240452 -2.590067,0.219726 -1.5699,-0.06836 -2.308943,-1.166286 -3.572937,-1.205348 -1.30098,-0.0402 -5.107707,0.661912 -5.107707,-0.288841 0,-1.166206 0.04193,-6.671893 0.04193,-15.575261 0,-3.149878 -1.882529,-4.000248 -2.787787,-4.000248 -0.759492,0 -2.994034,0.766129 -2.999345,3.966961 z"
       id="path3-4-8"
       sodipodi:nodetypes="szssscssssssssss" />
  </g>
  <metadata
     id="metadata1">
    <rdf:RDF>
      <cc:Work
         rdf:about="">
        <cc:license
           rdf:resource="https://opensource.org/license/mit" />
      </cc:Work>
    </rdf:RDF>
  </metadata>
</svg>
