<?xml version="1.0" encoding="UTF-8" standalone="no"?>
<!-- Created with Inkscape (http://www.inkscape.org/) -->

<svg
   width="256"
   height="256"
   viewBox="0 0 67.733332 67.733332"
   version="1.1"
   id="svg1"
   inkscape:version="1.4 (86a8ad7, 2024-10-11)"
   sodipodi:docname="person-select.svg"
   inkscape:export-filename="..\..\png\light\person-select.png"
   inkscape:export-xdpi="96"
   inkscape:export-ydpi="96"
   xmlns:inkscape="http://www.inkscape.org/namespaces/inkscape"
   xmlns:sodipodi="http://sodipodi.sourceforge.net/DTD/sodipodi-0.dtd"
   xmlns="http://www.w3.org/2000/svg"
   xmlns:svg="http://www.w3.org/2000/svg"
   xmlns:rdf="http://www.w3.org/1999/02/22-rdf-syntax-ns#"
   xmlns:cc="http://creativecommons.org/ns#">
  <sodipodi:namedview
     id="namedview1"
     pagecolor="#505050"
     bordercolor="#eeeeee"
     borderopacity="1"
     inkscape:showpageshadow="0"
     inkscape:pageopacity="0"
     inkscape:pagecheckerboard="0"
     inkscape:deskcolor="#505050"
     inkscape:document-units="mm"
     showguides="true"
     inkscape:zoom="1.885666"
     inkscape:cx="123.03345"
     inkscape:cy="178.98186"
     inkscape:window-width="1366"
     inkscape:window-height="697"
     inkscape:window-x="-8"
     inkscape:window-y="-8"
     inkscape:window-maximized="1"
     inkscape:current-layer="path2" />
  <defs
     id="defs1" />
  <g
     inkscape:label="Layer 1"
     inkscape:groupmode="layer"
     id="layer1">
    <g
       id="path1"
       inkscape:transform-center-x="-14.574798"
       inkscape:transform-center-y="19.90102" />
    <g
       id="path2">
      <path
         style="fill:#ffffff;stroke:#000000;stroke-width:2;stroke-linecap:round;stroke-linejoin:round;paint-order:markers fill stroke;stroke-dasharray:none"
         d="m 19.176633,14.427229 c -0.561252,7.605644 0.974374,23.229302 -0.709452,22.778122 -1.683826,-0.45118 -3.269917,-2.110348 -4.611182,-3.97404 -2.816992,-3.91422 -4.976823,-1.576957 -4.282306,2.529158 0.773161,4.571068 5.820585,19.59641 18.163,19.59641 12.220398,0 16.207758,-18.727685 16.207758,-18.727685 0,0 0.715135,-2.060751 -1.746891,-3.567678 -0.375675,-0.229938 -1.92215,0.104904 -2.488246,-0.09731 -0.697422,-0.249136 -1.565198,-1.407179 -3.236139,-1.653966 -0.725183,-0.107102 -2.114137,0.240452 -2.590067,0.219726 -1.5699,-0.06836 -2.308943,-1.166286 -3.572937,-1.205348 -1.30098,-0.0402 -5.107707,0.661912 -5.107707,-0.288841 0,-1.166206 -0.07013,-6.673489 -0.238699,-15.575261 -0.05698,-3.009195 -1.882529,-3.96517 -2.787787,-3.96517 -0.952422,0 -2.775828,0.902954 -2.999345,3.931883 z"
         id="path3-4"
         sodipodi:nodetypes="szssscsssssssss" />
      <g
         id="g2"
         transform="translate(1.1667286,3.2687652)"
         style="fill:#ffffff;stroke:#000000">
        <circle
           style="fill:#ffffff;stroke:#000000;stroke-width:2;stroke-linecap:round;stroke-linejoin:round;paint-order:markers fill stroke;stroke-dasharray:none"
           id="path10-4"
           cx="52.867157"
           cy="45.203663"
           r="4.4951811" />
        <path
           style="fill:#ffffff;stroke:#000000;stroke-width:2;stroke-linecap:round;stroke-linejoin:round;paint-order:markers fill stroke;stroke-dasharray:none"
           id="path10-8-3"
           sodipodi:type="arc"
           sodipodi:cx="52.867149"
           sodipodi:cy="-62.4212"
           sodipodi:rx="8.3395195"
           sodipodi:ry="9.3015795"
           sodipodi:start="0"
           sodipodi:end="3.1415927"
           sodipodi:arc-type="slice"
           d="m 61.206669,-62.4212 a 8.3395195,9.3015795 0 0 1 -4.16976,8.055404 8.3395195,9.3015795 0 0 1 -8.33952,0 8.3395195,9.3015795 0 0 1 -4.169759,-8.055404 h 8.339519 z"
           transform="scale(1,-1)" />
      </g>
    </g>
  </g>
  <metadata
     id="metadata1">
    <rdf:RDF>
      <cc:Work
         rdf:about="">
        <cc:license
           rdf:resource="https://opensource.org/license/mit" />
      </cc:Work>
    </rdf:RDF>
  </metadata>
</svg>
