<?xml version="1.0" encoding="UTF-8" standalone="no"?>
<!-- Created with Inkscape (http://www.inkscape.org/) -->

<svg
   width="256"
   height="256"
   viewBox="0 0 67.733332 67.733333"
   version="1.1"
   id="svg1"
   inkscape:version="1.4 (86a8ad7, 2024-10-11)"
   sodipodi:docname="precise.svg"
   inkscape:export-filename="..\png\precise.png"
   inkscape:export-xdpi="96"
   inkscape:export-ydpi="96"
   xmlns:inkscape="http://www.inkscape.org/namespaces/inkscape"
   xmlns:sodipodi="http://sodipodi.sourceforge.net/DTD/sodipodi-0.dtd"
   xmlns="http://www.w3.org/2000/svg"
   xmlns:svg="http://www.w3.org/2000/svg"
   xmlns:rdf="http://www.w3.org/1999/02/22-rdf-syntax-ns#"
   xmlns:cc="http://creativecommons.org/ns#">
  <sodipodi:namedview
     id="namedview1"
     pagecolor="#505050"
     bordercolor="#eeeeee"
     borderopacity="1"
     inkscape:showpageshadow="0"
     inkscape:pageopacity="0"
     inkscape:pagecheckerboard="0"
     inkscape:deskcolor="#505050"
     inkscape:document-units="mm"
     inkscape:zoom="0.80711279"
     inkscape:cx="-0.6194921"
     inkscape:cy="112.12807"
     inkscape:window-width="1366"
     inkscape:window-height="697"
     inkscape:window-x="-8"
     inkscape:window-y="-8"
     inkscape:window-maximized="1"
     inkscape:current-layer="layer1" />
  <defs
     id="defs1" />
  <g
     inkscape:label="Layer 1"
     inkscape:groupmode="layer"
     id="layer1">
    <path
       id="path4"
       style="stroke:none;stroke-width:1.5;stroke-linecap:round;stroke-linejoin:round;stroke-dasharray:none;paint-order:stroke markers fill"
       d="m 33.867683,5.2776971 c -1.553306,2.102e-4 -2.831659,1.2814868 -2.831868,2.8339355 V 31.035815 H 8.1116328 c -1.5524487,2.09e-4 -2.8337253,1.278562 -2.8339355,2.831868 2.102e-4,1.553308 1.2806279,2.833727 2.8339355,2.833936 H 31.035815 v 22.920048 0.0021 c 2.11e-4,1.552448 1.279421,2.831659 2.831868,2.831869 1.552448,-2.1e-4 2.833725,-1.278562 2.833936,-2.831869 v -0.0021 -22.920048 h 22.920048 0.0021 c 1.553277,-2.11e-4 2.831659,-1.281488 2.831869,-2.833936 -2.1e-4,-1.552447 -1.279421,-2.831657 -2.831869,-2.831868 h -0.0021 -22.920048 V 8.1116326 C 36.70141,6.558325 35.420991,5.2779073 33.867683,5.2776971 Z" />
  </g>
  <metadata
     id="metadata1">
    <rdf:RDF>
      <cc:Work
         rdf:about="">
        <cc:license
           rdf:resource="https://opensource.org/license/mit" />
      </cc:Work>
    </rdf:RDF>
  </metadata>
</svg>
